# xmcd
#
# Track frame offsets: 
#        150
#        32410
#        50160
#        67625
#        87821
#        102456
#        123134
#        144059
#        168683
#        187084
#
# Disc length: 3127 seconds
#
# Revision: 3
# Processed by: cddbd v1.5.1PL2 Copyright (c) Steve Scherf et al.
# Submitted via: ExactAudioCopy v0.95b3
#
DISCID=7e0c350a
DTITLE=Freddie Roulette - Back in Chicago
DYEAR=1997
DGENRE=Blues
TTITLE0=Need Your Lovin'
TTITLE1=Back in Chicago
TTITLE2=Everybody Wants to Go to Heaven
TTITLE3=Sleepwalk
TTITLE4=Killing Floor
TTITLE5=The Thrill Is Gone
TTITLE6=Soul Serenade
TTITLE7=You're Gonna Need Me
TTITLE8=Freddie's Funk
TTITLE9=Laundry Mat Blues
EXTD=Freddie Roulette: lap steel guitar, vocals\nVernon "Chico" Banks:
EXTD=guitar, bass (tracks 4,5,7,8]\nKen Barker: piano, organ\nWille K
EXTD=ent: bass (tracks 1-3,6,9,10]\nCleo Williams: drums\nRecorded 199
EXTD=6-09-14/15 - mixed 1996-10-05/07.\nMastered 1996-10-08 at Streetvi
EXTD=lle Studios, Chicago US-IL.\nExecutive producer: Robin Cohn\nProd
EXTD=ucer: Larry Hoffman\nEngineer: Jim Godsey\nHi Horse CD 4044 (1997
EXTD=09-16), UPC 725543404428.
EXTT0=(Morgan Babb)
EXTT1=(Fred Roulette)
EXTT2=(Don Nix)
EXTT3=(Ann Farina/John)
EXTT4=(Chester Burnett)
EXTT5=(J. Taub) or? (Rick Darnell/Roy Hawkins)
EXTT6=(Curtis Ousley/Luther Dixon)
EXTT7=(Albert King)
EXTT8=(Fred Roulette)
EXTT9=(Sandy Jones) or? (Sandie Jones)
PLAYORDER=
